<?xml version="1.0" encoding="UTF-8"?>
<svg width="1273px" height="777px" viewBox="0 0 1273 777" version="1.1" xmlns="http://www.w3.org/2000/svg" xmlns:xlink="http://www.w3.org/1999/xlink">
    <!-- Generator: Sketch 43.1 (39012) - http://www.bohemiancoding.com/sketch -->
    <title>Page 1</title>
    <desc>Created with Sketch.</desc>
    <defs>
        <linearGradient x1="50%" y1="0%" x2="50%" y2="100%" id="linearGradient-1">
            <stop stop-color="#FFFFFF" offset="0%"></stop>
            <stop stop-color="#000000" offset="100%"></stop>
        </linearGradient>
    </defs>
    <g id="Page-1" stroke="none" stroke-width="1" fill="none" fill-rule="evenodd" opacity="0.256567029">
        <g id="Slide-3" transform="translate(-112.000000, -259.000000)" fill="url(#linearGradient-1)">
            <g id="Page-1" style="mix-blend-mode: screen;" transform="translate(768.948762, 654.824081) rotate(100.000000) translate(-768.948762, -654.824081) translate(407.948762, 13.824081)">
                <path d="M460.167645,6.77212201 C459.554423,8.09438781 459.359307,9.3192235 459.247812,10.516222 L459.247812,10.516222 L424.712242,10.04299 C424.503189,5.70039078 417.911049,3.47341681 415.625402,8.38667814 L415.625402,8.38667814 C415.067927,9.58367665 415.095801,10.6693265 415.360601,11.629709 L415.360601,11.629709 L347.501971,36.4465502 C346.038599,33.5097283 341.216441,32.5215086 339.362837,36.488306 L339.362837,36.488306 C338.233951,38.9101402 339.251342,40.942254 340.923767,42.0279038 L340.923767,42.0279038 L252.940293,200.365754 C249.205211,198.542419 244.243685,199.210511 241.90229,204.249039 L241.90229,204.249039 C237.860597,212.948156 248.801042,219.336788 254.654528,214.061643 L254.654528,214.061643 L307.754011,271.587165 C307.196536,272.213501 306.625124,272.812001 306.234892,273.70279 L306.234892,273.70279 C305.482301,275.317346 305.412617,276.820554 305.607733,278.212413 L305.607733,278.212413 L213.373513,297.726272 C211.882268,292.311942 203.478334,289.973619 200.384348,296.626704 L200.384348,296.626704 C198.140512,301.470372 201.373866,305.353658 205.248316,306.258366 L205.248316,306.258366 L193.137174,386.471185 C190.781843,386.206732 188.328954,387.194952 186.977077,390.076099 L186.977077,390.076099 C185.332526,393.653176 187.046761,396.687428 189.652956,398.093205 L189.652956,398.093205 L155.744546,471.110115 C154.824713,470.734313 153.835195,470.650801 152.859614,470.817824 L152.859614,470.817824 L140.413987,426.403612 C141.751927,425.93038 142.978372,424.956079 143.772773,423.258011 L143.772773,423.258011 C147.117623,416.034265 136.34442,411.023573 132.999571,418.233401 L132.999571,418.233401 C132.902013,418.456099 132.91595,418.650959 132.846265,418.873656 L132.846265,418.873656 L87.871979,407.237717 C89.8788886,398.552519 77.0848399,393.179944 72.8480308,402.268782 L72.8480308,402.268782 C71.3149749,405.609243 72.0815028,408.518227 73.8375487,410.619934 L73.8375487,410.619934 L18.6335981,458.833921 C13.9089984,454.129438 4.905779,453.600532 1.14282352,461.715068 L1.14282352,461.715068 C-3.37272306,471.430242 6.45277181,478.904524 14.1459252,476.552282 L14.1459252,476.552282 L26.814542,511.237402 C24.8494431,512.04468 23.0376497,513.492213 21.8669524,516.025396 L21.8669524,516.025396 C17.7973858,524.780188 26.8006052,531.447191 33.68542,529.067112 L33.68542,529.067112 L49.9915605,569.069133 C48.737242,569.695469 47.5804816,570.655852 46.8000167,572.312163 L46.8000167,572.312163 C43.719968,578.965248 51.134384,583.822835 56.1098473,581.122629 L56.1098473,581.122629 L110.338217,669.408229 C109.683184,669.923217 109.069962,670.563472 108.623982,671.537773 L108.623982,671.537773 C106.909746,675.240117 109.279015,678.204776 112.205758,679.039891 L112.205758,679.039891 L94.9379732,776.010689 C92.7359474,775.732318 90.380616,776.609189 89.1262975,779.323313 L89.1262975,779.323313 C86.2274281,785.572759 94.2690033,790.054544 98.3106962,785.920724 L98.3106962,785.920724 L164.14848,845.756731 C163.953364,846.035102 163.7025,846.2578 163.535258,846.605764 L163.535258,846.605764 C160.76182,852.549001 169.681419,856.710659 172.468793,850.753503 L172.468793,850.753503 C172.496667,850.697829 172.48273,850.642155 172.510604,850.58648 L172.510604,850.58648 L273.427495,883.587451 C273.134821,884.617426 273.065136,885.56389 273.232379,886.468599 L273.232379,886.468599 L153.361341,916.671933 C151.45199,910.533836 141.835548,907.972816 138.295582,915.628039 L138.295582,915.628039 C136.274736,919.984557 138.142277,923.659064 141.138704,925.635503 L141.138704,925.635503 L106.700693,982.395503 C101.99003,979.820564 95.5372587,980.460819 92.4432731,986.835532 L92.4432731,986.835532 L25.4487286,957.077592 C27.6507544,951.023007 18.7032824,947.000535 15.8462237,953.166469 L15.8462237,953.166469 C13.4490816,958.302428 19.191073,962.074365 23.0376497,959.986577 L23.0376497,959.986577 L110.32428,1097.05683 C109.599563,1097.61357 108.930593,1098.33734 108.456739,1099.38123 L108.456739,1099.38123 C105.056142,1106.67457 115.996587,1111.75485 119.36931,1104.46151 L119.36931,1104.46151 C119.829227,1103.50113 119.982532,1102.59642 119.982532,1101.71955 L119.982532,1101.71955 L201.88953,1093.50759 C202.572437,1098.75489 207.854511,1102.12319 212.816038,1101.38551 L212.816038,1101.38551 L237.665481,1211.18924 C235.644635,1211.70423 233.791031,1213.06825 232.620333,1215.58752 L232.620333,1215.58752 C228.146597,1225.21918 242.585197,1231.95577 247.058933,1222.29627 L247.058933,1222.29627 C247.156491,1222.10141 247.128617,1221.94831 247.184365,1221.76737 L247.184365,1221.76737 L405.674475,1273.28006 C403.848745,1279.91923 413.632429,1284.10872 416.83791,1277.23294 L416.83791,1277.23294 C417.186331,1276.46742 417.311763,1275.74365 417.381448,1275.01988 L417.381448,1275.01988 L500.528827,1273.85072 C500.710006,1278.0263 504.556583,1281.00488 508.417097,1281.03271 L508.417097,1281.03271 L508.500718,1281.03271 C511.065102,1281.01879 513.629487,1279.69653 515.078921,1276.55093 L515.078921,1276.55093 C516.193871,1274.17085 516.068439,1271.97171 515.232227,1270.19013 L515.232227,1270.19013 L599.508493,1227.11211 C601.905635,1230.87012 608.260849,1231.96969 610.769486,1226.55536 L610.769486,1226.55536 C614.184019,1219.19243 603.898608,1214.07039 599.815104,1220.30592 L599.815104,1220.30592 L544.987449,1187.63899 C545.02926,1187.54156 545.098944,1187.51372 545.140755,1187.41629 L545.140755,1187.41629 C548.151119,1180.95807 541.029377,1176.17008 536.123598,1178.63367 L536.123598,1178.63367 L490.814827,1099.84054 C491.511671,1099.33947 492.166704,1098.6853 492.640557,1097.69708 L492.640557,1097.69708 C493.880939,1095.02471 492.919295,1092.74206 491.205059,1091.36412 L491.205059,1091.36412 L562.185549,992.110677 C565.655831,994.24022 570.673104,993.94793 572.986625,988.992913 L572.986625,988.992913 C573.32111,988.283065 573.376858,987.614973 573.488353,986.932962 L573.488353,986.932962 L661.332458,995.22844 C660.886478,1001.88152 670.879215,1005.59779 674.265875,998.318367 L674.265875,998.318367 C676.983565,992.47256 671.520311,987.990775 666.781775,988.811971 L666.781775,988.811971 L648.566283,920.123743 C650.280518,919.594836 651.855385,918.342164 652.85884,916.184783 L652.85884,916.184783 C654.587012,912.440683 653.165451,909.281163 650.684688,907.44391 L650.684688,907.44391 L709.386793,822.470934 L709.84671,822.443097 L709.637657,822.095132 L709.986079,821.607982 L709.40073,821.635819 L646.071583,705.944521 C647.144722,705.26251 648.106366,704.357802 648.789273,702.89635 L648.789273,702.89635 C650.224771,699.764668 649.430369,697.022706 647.674323,695.143697 L647.674323,695.143697 L684.007749,659.400764 C687.840389,662.741225 694.516151,662.950004 697.387146,656.756233 L697.387146,656.756233 C699.895783,651.341902 696.74605,646.874036 692.537115,645.329073 L692.537115,645.329073 L714.111393,574.469544 C716.633967,574.692242 719.240162,573.578755 720.67566,570.502747 L720.67566,570.502747 C723.992635,563.37643 715.184532,558.15696 710.29269,562.221188 L710.29269,562.221188 L671.422753,529.623856 C671.743301,529.164543 672.133534,528.844415 672.398334,528.287672 L672.398334,528.287672 C675.352951,521.940796 670.126624,516.97186 664.928171,516.957941 L664.928171,516.957941 L653.667178,381.112529 C656.761164,380.820239 659.771528,379.219601 661.527574,375.419827 L661.527574,375.419827 C664.900297,368.168243 659.715781,362.322436 653.820484,361.320298 L653.820484,361.320298 L666.767838,232.267156 C669.38797,232.462016 672.10566,231.292855 673.582969,228.09158 L673.582969,228.09158 C677.610725,219.406381 664.607623,213.337877 660.56593,222.036994 L660.56593,222.036994 C659.339485,224.681526 659.785465,227.00593 660.984036,228.829265 L660.984036,228.829265 L605.89158,267.522938 C603.717428,264.989755 599.703609,264.085046 596.888361,266.339858 L596.888361,266.339858 L558.088109,221.062693 C558.854637,220.297171 559.565417,219.434218 560.108955,218.265057 L560.108955,218.265057 C562.826645,212.433169 559.495733,207.645175 554.994123,205.91927 L554.994123,205.91927 L576.275727,139.61112 C580.261673,140.780281 584.86084,139.652875 587.202235,134.628265 L587.202235,134.628265 C592.484309,123.270698 575.481325,115.364941 570.199251,126.722508 L570.199251,126.722508 C570.185314,126.764264 570.185314,126.778182 570.171377,126.819938 L570.171377,126.819938 L510.563375,103.074828 C513.420434,95.1273145 505.490353,89.1562406 499.051518,91.0770056 L499.051518,91.0770056 L473.324052,20.5515235 C475.442457,19.6885711 477.393619,18.1296893 478.675811,15.3877276 L478.675811,15.3877276 C482.452704,7.27319115 475.749068,0.773210859 469.087243,0.773210859 L469.087243,0.773210859 C465.603025,0.773210859 462.132744,2.54087145 460.167645,6.77212201 L460.167645,6.77212201 Z M423.402176,13.5922298 C423.722724,13.2303465 424.029336,12.8963004 424.280199,12.4091499 L424.280199,12.4091499 C424.517126,11.8802436 424.558937,11.393093 424.642558,10.8781053 L424.642558,10.8781053 L459.108443,11.3652558 C459.066632,18.241038 466.508922,22.8202532 472.585398,20.9690811 L472.585398,20.9690811 L498.312864,91.4945632 C497.476652,91.8425279 496.626503,92.2183298 495.887848,92.886422 L495.887848,92.886422 L423.402176,13.5922298 Z M365.689589,67.3875699 L346.442768,41.7216949 C346.846938,41.3319744 347.209296,40.872661 347.501971,40.2741618 L347.501971,40.2741618 C348.017635,39.1606748 348.003698,38.1446179 347.752834,37.2399097 L347.752834,37.2399097 L415.583591,12.4230685 C415.890202,13.0633235 416.377993,13.5922298 416.921531,14.0097874 L416.921531,14.0097874 L375.947127,73.1498651 C374.135333,72.1198896 371.87756,72.0224595 370.079703,73.219458 L370.079703,73.219458 L365.689589,67.3875699 Z M422.872575,14.2185662 L478.494632,75.0845487 L495.386121,93.5684328 C494.689277,94.3061179 493.992434,95.0855588 493.490706,96.1851272 L493.490706,96.1851272 C493.170158,96.867138 493.156222,97.4795558 493.002916,98.147648 L493.002916,98.147648 L416.531298,85.0085015 L378.678754,78.5085212 C378.943554,76.4485703 378.079468,74.7505026 376.630033,73.6370157 L376.630033,73.6370157 L417.618374,14.496938 C418.384902,14.9284142 419.262925,15.1789488 420.140948,15.1789488 L420.140948,15.1789488 C421.088656,15.1789488 422.0503,14.8727398 422.872575,14.2185662 L422.872575,14.2185662 Z M345.759862,42.1949268 L356.2822,56.2248629 L369.38286,73.69269 C368.839322,74.1798406 368.351531,74.7922584 367.989173,75.5995365 L367.989173,75.5995365 C366.832412,78.0909636 367.487445,80.2901004 368.909006,81.7793893 L368.909006,81.7793893 L254.640591,201.548833 C254.320043,201.28438 253.985558,201.047764 253.637137,200.838985 L253.637137,200.838985 L341.62061,42.4732986 C342.205959,42.7377517 342.819181,42.863019 343.446341,42.863019 L343.446341,42.863019 C344.240742,42.863019 345.049081,42.6542402 345.759862,42.1949268 L345.759862,42.1949268 Z M400.099726,159.90442 L375.236346,83.2269223 C376.448854,82.7536904 377.508056,81.890738 378.232774,80.3596934 L378.232774,80.3596934 C378.386079,79.9978101 378.386079,79.663764 378.483637,79.3157993 L378.483637,79.3157993 L492.8078,98.9549261 C492.110956,103.464548 494.731088,107.0973 498.410422,108.628344 L498.410422,108.628344 L439.778001,272.199583 C438.690925,271.879455 437.548102,271.782025 436.433152,272.03256 L436.433152,272.03256 L400.099726,159.90442 Z M255.156256,213.393551 C255.741604,212.739378 256.326953,212.099123 256.772933,211.166577 L256.772933,211.166577 C258.487168,207.464233 257.483713,204.179446 255.323498,202.035984 L255.323498,202.035984 L369.564039,82.294377 C370.037893,82.6701789 370.53962,82.9763878 371.097095,83.1990852 L371.097095,83.1990852 L315.11268,269.499377 C312.771285,268.886959 310.234774,269.151412 308.255739,270.919073 L308.255739,270.919073 L255.156256,213.393551 Z M321.161282,276.667449 C321.119472,273.326988 318.805951,270.807724 315.921018,269.722074 L315.921018,269.722074 L371.891497,83.4217826 C372.755583,83.6305614 373.605732,83.6723171 374.455881,83.4913755 L374.455881,83.4913755 L435.652687,272.297013 C434.272937,272.825919 433.004681,273.828058 432.182406,275.595718 L432.182406,275.595718 C431.833984,276.375159 431.722489,277.098926 431.652805,277.822692 L431.652805,277.822692 L321.161282,276.667449 Z M527.566359,157.816632 L505.992081,108.419565 C507.692379,107.570532 509.281183,106.262184 510.326448,104.007373 L510.326448,104.007373 C510.340385,103.965618 510.340385,103.951699 510.354322,103.909943 L510.354322,103.909943 L569.962324,127.627216 C567.955414,133.194651 571.091211,137.73211 575.467389,139.388422 L575.467389,139.388422 L554.199722,205.710491 C552.332181,205.167666 550.381019,205.12591 548.541351,205.807921 L548.541351,205.807921 L527.566359,157.816632 Z M505.267363,108.823204 L530.855461,167.39262 L547.816634,206.21156 C546.116336,207.060594 544.58328,208.327185 543.551951,210.554159 L543.551951,210.554159 C542.13039,213.588412 542.450938,216.330373 543.635572,218.52951 L543.635572,218.52951 L443.387651,274.830196 C442.690807,273.80022 441.7431,272.937268 440.58634,272.436199 L440.58634,272.436199 L499.218761,108.851042 C500.208279,109.185088 501.239607,109.352111 502.270936,109.352111 L502.270936,109.352111 C503.274391,109.352111 504.291782,109.185088 505.267363,108.823204 L505.267363,108.823204 Z M492.320009,302.458592 L443.973,280.564654 C444.711654,278.657807 444.586222,276.931903 443.861505,275.512207 L443.861505,275.512207 L544.123363,219.225439 C546.088462,222.204017 549.725986,223.874248 553.279888,223.401016 L553.279888,223.401016 L576.693833,335.58483 C575.14684,335.988469 573.739216,337.0602 572.777572,338.897453 L572.777572,338.897453 L492.320009,302.458592 Z M554.1161,223.331423 C555.328608,223.053051 556.471432,222.524145 557.50276,221.675111 L557.50276,221.675111 L596.303012,266.938357 C595.801285,267.481182 595.313494,268.051844 594.937199,268.831285 L594.937199,268.831285 C593.027847,272.937268 595.341368,276.319485 598.491101,277.586076 L598.491101,277.586076 L583.620459,324.324693 L579.996872,335.696178 C579.188533,335.473481 578.380195,335.417807 577.557919,335.515237 L577.557919,335.515237 L554.1161,223.331423 Z M604.163408,277.126763 C605.166863,276.514345 606.086697,275.67923 606.727793,274.315208 L606.727793,274.315208 C607.828806,271.949048 607.4107,269.833423 606.365434,268.19103 L606.365434,268.19103 L661.471827,229.511275 C662.600713,230.861378 664.203454,231.766087 665.945563,232.100133 L665.945563,232.100133 L653.026082,361.111519 C651.367594,360.958414 649.73698,361.375972 648.176051,362.099739 L648.176051,362.099739 L604.163408,277.126763 Z M321.272777,284.6428 L318.959256,282.248803 C319.474921,281.664222 320.004522,281.107479 320.380817,280.286282 L320.380817,280.286282 C320.826797,279.3259 320.980103,278.393354 321.063724,277.488646 L321.063724,277.488646 L431.555247,278.671726 C431.597057,280.133178 432.182406,281.413688 433.088302,282.429745 L433.088302,282.429745 L378.344269,334.346075 C375.821695,332.119101 371.780002,331.576277 369.034438,334.095541 L369.034438,334.095541 L321.272777,284.6428 Z M603.452628,277.54432 L647.451333,362.503378 C645.820719,363.46376 644.343411,364.772107 643.326019,366.971244 L643.326019,366.971244 C643.298145,367.026919 643.312082,367.068674 643.284208,367.138267 L643.284208,367.138267 L633.584145,363.296737 L584.540292,343.894226 C585.822485,340.150126 583.731954,337.088037 580.805211,335.918876 L580.805211,335.918876 L599.285503,277.808774 C599.856915,277.961878 600.442263,278.04539 601.013675,278.04539 L601.013675,278.04539 C601.835951,278.04539 602.658226,277.878366 603.452628,277.54432 L603.452628,277.54432 Z M273.106947,407.098531 L210.66976,305.270146 C211.561719,304.602054 212.383995,303.75302 212.969344,302.500348 L212.969344,302.500348 C213.638313,301.066733 213.680124,299.758386 213.526818,298.53355 L213.526818,298.53355 L305.761038,279.019691 C306.527566,281.831245 308.882898,283.835522 311.642398,284.517533 L311.642398,284.517533 L288.799865,423.007477 C286.974135,422.756942 285.176278,423.132744 283.503854,424.051371 L283.503854,424.051371 L273.106947,407.098531 Z M439.513201,284.601044 C441.143815,284.266998 442.63506,283.237023 443.652452,281.330176 L443.652452,281.330176 L572.42915,339.662976 C571.579001,341.834275 571.913486,343.741122 572.87513,345.272166 L572.87513,345.272166 L559.328491,354.625457 L466.690101,418.428262 C465.477593,417.022484 463.651863,416.256962 461.798259,416.382229 L461.798259,416.382229 L439.513201,284.601044 Z M318.457529,282.930814 L368.532711,334.777552 C368.086731,335.306458 367.626814,335.77969 367.306266,336.489538 L367.306266,336.489538 C365.828957,339.635139 366.693043,342.446693 368.532711,344.25611 L368.532711,344.25611 L293.440843,425.095265 C292.311957,424.190557 291.015828,423.578139 289.608204,423.244093 L289.608204,423.244093 L301.649661,350.185428 L312.450737,284.74023 C312.827033,284.795904 313.217265,284.823742 313.593561,284.823742 L313.593561,284.823742 C315.33567,284.823742 317.035968,284.25308 318.457529,282.930814 L318.457529,282.930814 Z M378.87387,343.75504 C379.236228,343.309646 379.626461,342.947762 379.891261,342.349263 L379.891261,342.349263 C381.284949,339.384604 380.546294,336.76791 378.91568,334.944575 L378.91568,334.944575 L382.664699,331.395335 L433.673651,283.014325 C435.053401,284.211324 436.865195,284.823742 438.690925,284.684556 L438.690925,284.684556 L456.293195,388.809508 L460.975984,416.465741 C460.070087,416.646682 459.233875,417.105996 458.523094,417.829762 L458.523094,417.829762 L378.87387,343.75504 Z M209.931105,305.673785 L271.04429,405.330871 L282.779136,424.468929 C281.594502,425.304044 280.521363,426.403612 279.740898,428.046005 L279.740898,428.046005 L198.419249,394.627477 C199.812936,390.646761 197.192804,387.487242 193.945513,386.693882 L193.945513,386.693882 L206.056655,306.494982 C206.293582,306.522819 206.530509,306.536738 206.767435,306.536738 L206.767435,306.536738 C207.854511,306.536738 208.927651,306.230529 209.931105,305.673785 L209.931105,305.673785 Z M374.609187,503.262052 L374.051712,346.343898 C375.612642,346.288223 377.131761,345.717561 378.372142,344.45097 L378.372142,344.45097 L458.00743,418.511773 C457.756566,418.859738 457.436018,419.13811 457.240902,419.583504 L457.240902,419.583504 C456.125952,421.977501 456.711301,424.093127 458.021367,425.554578 L458.021367,425.554578 L398.956903,483.344553 L377.368688,504.45905 C376.588223,503.818795 375.626579,503.3734 374.609187,503.262052 L374.609187,503.262052 Z M584.317302,344.715423 L643.075155,367.945545 C641.319109,372.803132 643.270272,376.895197 646.615121,379.219601 L646.615121,379.219601 L574.045828,489.009418 C573.488353,488.703209 572.903004,488.508349 572.275845,488.410919 L572.275845,488.410919 L578.575311,348.431686 L578.658932,348.431686 L578.658932,348.431686 C580.860958,348.431686 583.076921,347.387792 584.317302,344.715423 L584.317302,344.715423 Z M295.824049,435.548124 C297.705526,431.483897 296.548766,427.892901 294.12375,425.568497 L294.12375,425.568497 L369.215617,344.729342 C370.372378,345.647968 371.738191,346.288223 373.201563,346.413491 L373.201563,346.413491 L373.786911,503.317726 C372.225982,503.401237 370.706863,504.16676 369.814903,506.073606 L369.814903,506.073606 C367.849804,510.304857 371.835749,513.533969 375.236346,512.893714 L375.236346,512.893714 L402.468994,602.111859 C401.549161,602.487661 400.685075,603.18359 400.1276,604.394507 L400.1276,604.394507 C399.876736,604.909495 399.820989,605.396646 399.751304,605.883796 L399.751304,605.883796 L329.105299,606.064738 C328.840499,600.859186 320.952229,598.172899 318.206665,604.07438 L318.206665,604.07438 C317.022031,606.6354 317.704938,608.90413 319.168309,610.407337 L319.168309,610.407337 L248.020577,686.44458 C246.640827,685.317174 245.02415,684.551652 243.268104,684.203687 L243.268104,684.203687 L262.807598,532.059609 C265.344109,532.310143 267.978178,531.196656 269.413676,528.10673 L269.413676,528.10673 C271.476333,523.680619 268.828327,520.061786 265.358046,518.864788 L265.358046,518.864788 L285.956743,440.391792 C286.695397,440.558815 287.447988,440.656246 288.200579,440.656246 L288.200579,440.656246 C291.169133,440.656246 294.109813,439.194794 295.824049,435.548124 L295.824049,435.548124 Z M467.177892,424.635952 C467.247576,424.510684 467.345134,424.441091 467.414819,424.315824 L467.414819,424.315824 C468.348589,422.297629 468.041978,420.529968 467.177892,419.124191 L467.177892,419.124191 L514.312393,386.638208 L573.348984,345.968096 C574.463934,347.276443 576.0388,348.167233 577.739099,348.403849 L577.739099,348.403849 L571.425696,488.369163 C570.032008,488.383082 568.694069,489.009418 567.690614,490.37344 L567.690614,490.37344 L467.177892,424.635952 Z M576.456906,494.618609 C577.056192,492.433391 576.21998,490.610056 574.728734,489.496569 L574.728734,489.496569 L631.187003,404.092117 L647.311965,379.692833 C648.998326,380.694971 650.879804,381.209959 652.830966,381.182122 L652.830966,381.182122 L659.562475,462.299649 L664.091959,517.041453 C661.653006,517.305906 659.325548,518.586416 657.931861,521.551075 L657.931861,521.551075 C657.862177,521.718098 657.876114,521.857284 657.820366,522.010389 L657.820366,522.010389 L576.456906,494.618609 Z M198.168385,395.434755 L261.497532,421.462514 L279.531845,428.881121 C278.807128,430.801886 278.779254,432.597384 279.225234,434.198021 L279.225234,434.198021 L158.922153,473.963425 C158.4483,472.863857 157.542403,472.028742 156.497138,471.458079 L156.497138,471.458079 L190.405547,398.455089 C191.186012,398.761298 192.022225,398.928321 192.858437,398.928321 L192.858437,398.928321 C194.921094,398.928321 196.969814,397.898345 198.168385,395.434755 L198.168385,395.434755 Z M87.4259991,409.061052 C87.5932415,408.699169 87.5653678,408.39296 87.6768628,408.044995 L87.6768628,408.044995 L132.651149,419.680934 C132.511781,420.321189 132.442096,420.947526 132.511781,421.532107 L132.511781,421.532107 L62.2838817,436.118786 C61.9633336,434.977462 61.3222375,434.030998 60.4163408,433.293313 L60.4163408,433.293313 L75.4960365,412.721641 L75.8026477,412.304083 C77.2102718,413.208791 78.8826964,413.723779 80.5411842,413.723779 L80.5411842,413.723779 C83.2310006,413.723779 85.8929431,412.359758 87.4259991,409.061052 L87.4259991,409.061052 Z M19.1213886,459.52985 L74.3253392,411.301945 C74.5622661,411.510724 74.8688773,411.635991 75.119741,411.84477 L75.119741,411.84477 L59.7334341,432.820081 C57.0296809,431.177688 53.1691673,431.428222 51.3852477,435.255834 L51.3852477,435.255834 C50.4654141,437.246192 50.7162778,439.013852 51.4967426,440.433548 L51.4967426,440.433548 L37.7689236,448.979561 L19.623116,460.253617 C19.4419367,460.017001 19.3025679,459.738629 19.1213886,459.52985 L19.1213886,459.52985 Z M62.1584498,439.417491 C62.4371873,438.54062 62.5347454,437.719424 62.4511242,436.926064 L62.4511242,436.926064 L132.665086,422.353303 C133.501298,425.290125 136.651032,427.099542 139.591712,426.570635 L139.591712,426.570635 L152.051275,470.984847 C150.866641,471.402405 149.821376,472.251439 149.096658,473.726809 L149.096658,473.726809 L62.1584498,439.417491 Z M466.049005,426.166996 C466.299869,425.944299 466.467111,425.596334 466.690101,425.290125 L466.690101,425.290125 L567.202823,491.041532 C567.161013,491.138962 567.077391,491.180718 567.021644,491.292066 L567.021644,491.292066 C565.516462,494.535097 567.39794,497.207466 569.906577,498.15393 L569.906577,498.15393 L558.784953,539.074577 C556.694422,538.573508 554.492396,538.865798 552.610918,540.188064 L552.610918,540.188064 L466.049005,426.166996 Z M378.999302,508.704219 C379.222292,507.256686 378.804185,505.990095 377.98191,505.043631 L377.98191,505.043631 L417.827427,466.043749 L458.634589,426.139159 C460.50213,427.684122 463.247694,428.087761 465.380035,426.640228 L465.380035,426.640228 L551.900138,540.633459 C551.105736,541.357225 550.408892,542.275852 549.865354,543.445013 L549.865354,543.445013 C549.642364,543.918245 549.656301,544.335803 549.544806,544.795116 L549.544806,544.795116 L378.999302,508.704219 Z M158.866406,477.846711 C159.270575,476.747143 159.298449,475.717167 159.089396,474.79854 L159.089396,474.79854 L279.392476,435.019218 C280.381994,437.538482 282.597957,439.320061 285.148404,440.169095 L285.148404,440.169095 L264.563644,518.656009 C261.873828,518.05751 258.961022,518.920462 257.316471,522.0939 L257.316471,522.0939 L158.866406,477.846711 Z M86.0741225,524.348711 L58.9250955,443.119836 C60.1097296,442.632685 61.1968057,441.741895 61.921523,440.224769 L61.921523,440.224769 L148.859732,474.534087 C148.135014,476.802817 148.845795,478.751419 150.295229,480.004092 L150.295229,480.004092 L100.456975,543.695548 L100.38729,543.779059 C97.9344007,542.09491 94.8822257,541.343307 91.9972932,542.108829 L91.9972932,542.108829 L86.0741225,524.348711 Z M14.8845795,476.134725 C17.1284159,475.230017 19.1771361,473.601542 20.501139,470.720394 L20.501139,470.720394 C22.2711217,466.934539 21.69971,463.594078 20.0969697,460.935627 L20.0969697,460.935627 L51.9845332,441.129478 C52.653503,441.99243 53.5036522,442.688359 54.5349808,443.091998 L54.5349808,443.091998 L33.4624301,509.260963 L32.9188921,510.986868 C31.1628462,510.47188 29.3092422,510.290938 27.5392594,510.819844 L27.5392594,510.819844 L14.8845795,476.134725 Z M85.3494051,546.562777 L39.1208002,523.819805 C41.7409321,517.86265 38.3263985,512.963307 33.7132938,511.209565 L33.7132938,511.209565 L55.3433194,443.300777 C56.2492161,443.56523 57.2108602,443.620905 58.1306938,443.412126 L58.1306938,443.412126 L84.387761,521.968633 L91.2307652,542.415038 C89.2517293,543.152723 87.4817466,544.642012 86.2274281,547.008172 L86.2274281,547.008172 L85.3494051,546.562777 Z M158.545858,478.626152 L256.981986,522.873341 C256.15971,525.030722 256.396637,526.951487 257.316471,528.49645 L257.316471,528.49645 L136.30261,604.65896 C135.145849,603.127916 133.515235,602.056185 131.633758,601.582953 L131.633758,601.582953 L153.347404,481.395951 C153.584331,481.437707 153.821258,481.451625 154.058185,481.451625 L154.058185,481.451625 C155.786357,481.451625 157.486655,480.588673 158.545858,478.626152 L158.545858,478.626152 Z M113.209213,581.164385 L100.220048,559.827191 C101.557987,558.894645 102.784432,557.669809 103.662455,555.804719 L103.662455,555.804719 C105.920228,550.933213 104.178119,546.785474 101.070197,544.26621 L101.070197,544.26621 L150.978136,480.477324 C151.479864,480.797452 151.981591,481.020149 152.553003,481.173253 L152.553003,481.173253 L130.839356,601.360255 C129.194805,601.109721 127.564191,601.41593 126.059009,602.237126 L126.059009,602.237126 L113.209213,581.164385 Z M576.21998,495.565073 C576.26179,495.523317 576.233916,495.481561 576.275727,495.425887 L576.275727,495.425887 L657.611313,522.817667 C657.276828,523.986828 657.151396,525.072478 657.290765,526.102453 L657.290765,526.102453 L564.889303,544.822953 C564.192459,542.150585 562.143739,540.174145 559.593291,539.297274 L559.593291,539.297274 L564.582691,520.994332 L570.714915,498.376627 C571.091211,498.44622 571.467506,498.487976 571.843802,498.487976 L571.843802,498.487976 C573.558037,498.487976 575.258335,497.666779 576.21998,495.565073 L576.21998,495.565073 Z M376.030748,512.671017 C377.076013,512.267378 378.023721,511.501855 378.623006,510.179589 L378.623006,510.179589 C378.748438,509.942973 378.734501,509.748113 378.790249,509.525416 L378.790249,509.525416 L452.446618,525.100315 L549.321816,545.602394 C549.08489,546.952497 549.098826,548.219089 549.475122,549.346494 L549.475122,549.346494 L458.397662,584.741462 L408.210986,604.26924 C407.277215,602.515498 405.214558,601.527278 403.277333,601.889162 L403.277333,601.889162 L376.030748,512.671017 Z M34.4380111,528.649555 C36.0964989,527.884033 37.6016811,526.603523 38.702694,524.55749 L38.702694,524.55749 L55.3015087,532.727701 L85.8093219,547.731938 C84.387761,550.919295 84.708309,553.800442 85.9765644,556.124846 L85.9765644,556.124846 L77.0569662,561.135538 L58.6045474,571.504885 C56.8903122,569.041295 53.6290841,567.71903 50.7441515,568.665494 L50.7441515,568.665494 L34.4380111,528.649555 Z M595.564358,605.396646 L561.865001,553.355047 C562.854519,552.603444 563.746479,551.629143 564.387575,550.209447 L564.387575,550.209447 C565.154103,548.567053 565.237724,547.049927 565.028671,545.64415 L565.028671,545.64415 L647.730071,528.872252 L657.444071,526.909731 C657.959735,528.900089 659.200116,530.486808 660.928289,531.55854 L660.928289,531.55854 L610.379253,620.734929 C608.874071,620.038999 607.104088,620.066837 605.612843,620.901952 L605.612843,620.901952 L595.564358,605.396646 Z M135.034354,615.376273 C135.800882,614.666425 136.511663,613.761717 137.041264,612.592555 L137.041264,612.592555 C138.337393,609.794919 137.961098,607.317411 136.776463,605.340971 L136.776463,605.340971 L257.776388,529.178461 C258.152683,529.665612 258.570789,530.097088 259.05858,530.47289 L259.05858,530.47289 L178.057479,645.050701 L172.594225,652.761598 C169.834724,651.063531 166.266885,650.826915 163.465574,652.831191 L163.465574,652.831191 L135.034354,615.376273 Z M670.921026,530.305867 L709.749152,562.847524 C709.247424,563.404267 708.745697,563.961011 708.369401,564.768289 L708.369401,564.768289 C707.282325,567.106612 707.575,569.1944 708.522707,570.86463 L708.522707,570.86463 L612.567342,622.683531 C612.163173,622.09895 611.675382,621.597881 611.06216,621.222079 L611.06216,621.222079 L649.430369,553.535989 L661.597258,532.031772 C662.754019,532.602434 664.022274,532.908643 665.276593,532.908643 L665.276593,532.908643 C667.325313,532.908643 669.360096,532.101365 670.921026,530.305867 L670.921026,530.305867 Z M179.938957,664.731583 L175.841516,662.838656 C177.541814,658.746591 176.008759,655.280863 173.291068,653.248749 L173.291068,653.248749 L259.72755,530.946122 C260.452267,531.363679 261.190921,531.65597 261.985323,531.836911 L261.985323,531.836911 L242.459765,683.98099 C238.822241,683.563432 235.045349,685.080558 232.85726,689.353564 L232.85726,689.353564 L179.938957,664.731583 Z M408.294607,607.985503 C408.754524,606.913772 408.754524,605.925552 408.489723,605.048681 L408.489723,605.048681 L549.725986,550.153772 C549.990786,550.738353 550.422829,551.253341 550.826999,551.740491 L550.826999,551.740491 L472.348471,619.802383 L459.777413,630.700637 C457.798377,628.90514 454.425654,628.738117 452.669608,631.549671 L452.669608,631.549671 L408.294607,607.985503 Z M460.307014,631.340892 L507.023409,590.837803 L551.328726,552.422502 C553.8513,554.913929 557.934803,555.651614 561.126347,553.758686 L561.126347,553.758686 L586.491454,592.911673 L604.874189,621.305591 C604.274903,621.792741 603.717428,622.432996 603.313259,623.309867 L603.313259,623.309867 C602.978774,624.061471 602.839405,624.757401 602.783658,625.439411 L602.783658,625.439411 L465.589088,633.150309 L461.157163,633.400843 C461.059605,632.607484 460.780867,631.939392 460.307014,631.340892 L460.307014,631.340892 Z M83.2310006,588.137597 L59.203833,577.489878 C59.9842978,575.485601 59.8449291,573.690104 59.0784011,572.200815 L59.0784011,572.200815 L73.4333794,564.128034 L86.450418,556.820776 C89.1959818,560.968515 94.9797838,562.777931 99.4953304,560.23083 L99.4953304,560.23083 L110.129164,577.698657 L125.334291,602.640765 C124.344773,603.364532 123.452814,604.297077 122.783844,605.64718 L122.783844,605.64718 L83.2310006,588.137597 Z M613.180565,626.817351 C613.542923,625.55076 613.501113,624.353762 613.055133,623.365542 L613.055133,623.365542 L708.996561,571.56056 C710.0697,572.952418 711.602756,573.898882 713.303054,574.260766 L713.303054,574.260766 L691.742713,645.106375 C688.188811,644.145993 684.133181,645.16205 682.056587,649.629916 L682.056587,649.629916 C681.972966,649.810858 682.014776,649.963962 681.931155,650.130985 L681.931155,650.130985 L613.180565,626.817351 Z M56.8345647,580.732909 C57.6289664,580.134409 58.3397469,579.354969 58.8972218,578.269319 L58.8972218,578.269319 L122.477233,606.412702 C120.512134,611.423394 123.522498,615.445866 127.494507,616.740294 L127.494507,616.740294 L114.463531,668.517439 C113.320708,668.294742 112.15001,668.433928 111.076871,669.00459 L111.076871,669.00459 L56.8345647,580.732909 Z M326.373672,611.353801 C327.237758,610.797057 328.03216,610.073291 328.575698,608.90413 L328.575698,608.90413 C328.910183,608.2082 329.007741,607.540108 329.063489,606.899853 L329.063489,606.899853 L399.709494,606.704993 C399.834926,608.444816 401.01956,609.794919 402.552616,610.407337 L402.552616,610.407337 L377.006329,697.718635 C375.110914,697.217566 373.159752,697.328915 371.347959,698.150112 L371.347959,698.150112 L326.373672,611.353801 Z M407.862564,608.695351 L452.237565,632.259519 C451.471037,634.068935 451.847332,635.655654 452.767166,636.838734 L452.767166,636.838734 L418.231597,667.348278 L381.298886,699.973447 C380.323304,699.040901 379.110797,698.400646 377.814667,697.941333 L377.814667,697.941333 L403.33308,610.630034 C403.667565,610.699627 404.00205,610.741383 404.336535,610.741383 L404.336535,610.741383 C405.660538,610.741383 406.970604,610.115047 407.862564,608.695351 L407.862564,608.695351 Z M316.49243,700.349248 L251.490858,694.364256 C251.741722,691.37176 250.640709,688.768984 248.703484,686.917812 L248.703484,686.917812 L319.837279,610.894488 C321.495767,612.161079 323.71173,612.592555 325.648955,611.75744 L325.648955,611.75744 L350.108166,658.983207 L370.595368,698.567669 C369.215617,699.388866 367.919488,700.53019 367.055402,702.423118 L367.055402,702.423118 C366.637296,703.28607 366.581549,704.093348 366.44218,704.900627 L366.44218,704.900627 L316.49243,700.349248 Z M134.309637,615.821667 L158.336805,647.444698 L162.754793,653.262667 C161.932518,654.014271 161.193863,654.974654 160.622452,656.213408 L160.622452,656.213408 C159.744429,658.092417 159.730492,659.818322 160.037103,661.405041 L160.037103,661.405041 L118.742151,672.066679 C118.184676,670.452123 116.860673,669.282961 115.27187,668.740137 L115.27187,668.740137 L128.302845,616.949073 C128.902131,617.088259 129.501416,617.157852 130.114639,617.157852 L130.114639,617.157852 C131.57801,617.157852 133.027445,616.740294 134.309637,615.821667 L134.309637,615.821667 Z M460.975984,635.21026 C461.073542,634.876214 461.185037,634.528249 461.226847,634.22204 L461.226847,634.22204 L514.716563,631.215625 L602.881216,626.274527 C603.271448,629.58715 606.96472,631.66102 609.975084,630.589289 L609.975084,630.589289 L633.082418,680.82147 L638.921967,693.570896 C637.70946,694.238989 636.566636,695.21329 635.800108,696.855683 L635.800108,696.855683 C635.758297,696.967032 635.772234,697.022706 635.730424,697.120136 L635.730424,697.120136 L460.975984,635.21026 Z M610.713738,630.18565 C611.577824,629.670662 612.414037,628.974733 612.943638,627.805571 L612.943638,627.805571 C612.971512,627.735978 612.957575,627.708141 612.985448,627.638548 L612.985448,627.638548 L681.749976,650.938263 C680.774395,654.111701 681.540923,656.895419 683.394527,658.844021 L683.394527,658.844021 L647.061101,694.600872 C645.040254,692.861048 642.183196,692.206875 639.660622,693.167257 L639.660622,693.167257 L610.713738,630.18565 Z M460.780867,636.031456 L460.780867,636.017538 L635.535308,697.927414 C635.131138,699.24968 635.075391,700.488434 635.354128,701.601921 L635.354128,701.601921 L428.795746,766.058899 C428.15465,764.486099 426.774899,763.358693 425.172159,762.829787 L425.172159,762.829787 L425.604202,761.103882 L455.819341,638.662069 C456.112015,638.717744 456.418626,638.745581 456.725238,638.745581 L456.725238,638.745581 C458.300104,638.745581 459.874971,637.96614 460.780867,636.031456 L460.780867,636.031456 Z M380.755348,712.806384 C381.577623,712.026943 382.344151,711.066561 382.915563,709.799969 L382.915563,709.799969 C384.629798,706.139381 383.751775,702.938106 381.800613,700.655457 L381.800613,700.655457 L423.053755,664.202677 L453.310704,637.465071 C453.798495,637.896547 454.383843,638.216675 455.011002,638.453291 L455.011002,638.453291 L429.185978,743.079312 L424.377757,762.60709 C422.956196,762.342637 421.506762,762.565334 420.252443,763.442205 L420.252443,763.442205 L380.755348,712.806384 Z M118.491287,676.130906 C119.048762,674.947827 119.076636,673.890014 118.909393,672.887876 L118.909393,672.887876 L160.204346,662.212319 C160.775757,664.049573 162.002202,665.524943 163.577069,666.541 L163.577069,666.541 L123.508561,732.765638 L96.9448828,776.650944 C96.5685872,776.456084 96.1504811,776.372573 95.7602486,776.247305 L95.7602486,776.247305 L113.028033,679.276507 C113.26496,679.304344 113.515824,679.318263 113.766687,679.318263 L113.766687,679.318263 C115.620291,679.318263 117.459959,678.385718 118.491287,676.130906 L118.491287,676.130906 Z M175.507031,663.590259 L232.508838,690.119087 C231.129088,693.362118 231.51932,696.257184 232.85726,698.595506 L232.85726,698.595506 L149.570512,748.326619 L99.0354136,778.474279 C98.659118,777.931454 98.1852644,777.513897 97.6417264,777.124176 L97.6417264,777.124176 L164.259975,667.02815 C165.556104,667.710161 167.005539,668.099882 168.468911,668.099882 L168.468911,668.099882 C171.172664,668.099882 173.876417,666.763697 175.507031,663.590259 L175.507031,663.590259 Z M248.020577,701.601921 C249.024032,700.72505 249.902055,699.555889 250.584962,698.080519 L250.584962,698.080519 C251.058815,697.064462 251.142436,696.131917 251.295742,695.199371 L251.295742,695.199371 L366.233127,705.721823 C366.121632,707.113682 366.288874,708.435948 366.804538,709.605109 L366.804538,709.605109 L291.169133,746.057889 C288.953171,742.285952 283.643222,740.657477 279.86633,743.343765 L279.86633,743.343765 L248.020577,701.601921 Z M98.7984868,785.252631 C99.0493505,784.904667 99.3698985,784.640213 99.5650147,784.194819 L99.5650147,784.194819 C100.456975,782.287972 100.261858,780.548149 99.5232041,779.142371 L99.5232041,779.142371 L233.358988,699.291436 C234.306695,700.669376 235.505266,701.824619 236.996511,702.60406 L236.996511,702.60406 L205.0532,769.761244 L169.695355,844.114337 C168.008994,843.474082 166.071769,843.655024 164.650208,845.07472 L164.650208,845.07472 L98.7984868,785.252631 Z M247.281923,702.033398 L255.253814,712.458419 L279.155549,743.816997 C278.389021,744.499008 277.720052,745.389797 277.176514,746.531121 L277.176514,746.531121 C275.699205,749.732396 276.423922,752.530032 278.08241,754.576065 L278.08241,754.576065 L171.479275,845.17215 C171.172664,844.893778 170.810305,844.671081 170.461883,844.476221 L170.461883,844.476221 L200.412222,781.480694 L237.749102,702.979861 C239.045231,703.536605 240.424982,703.828895 241.804732,703.828895 L241.804732,703.828895 C243.72802,703.828895 245.623435,703.258233 247.281923,702.033398 L247.281923,702.033398 Z M428.907241,769.371523 C429.116294,768.480734 429.144168,767.645618 428.962988,766.880096 L428.962988,766.880096 L635.507434,702.423118 C636.41333,704.747522 638.559609,706.320322 640.956751,706.83531 L640.956751,706.83531 L631.493615,780.14451 L626.253351,820.661518 C623.549597,820.383146 620.692539,821.566226 619.17342,824.87885 L619.17342,824.87885 C619.061925,825.115466 619.089798,825.310326 619.020114,825.505186 L619.020114,825.505186 L428.907241,769.371523 Z M645.346866,706.34816 L708.480896,821.705412 L632.929112,827.022312 C632.580691,823.848874 630.04418,821.52447 627.075626,820.884215 L627.075626,820.884215 L639.660622,723.481941 L641.779026,707.071926 C641.960206,707.085845 642.141385,707.099763 642.336501,707.099763 L642.336501,707.099763 C643.36783,707.099763 644.385221,706.807473 645.346866,706.34816 L645.346866,706.34816 Z M412.057562,766.25376 L292.061093,750.442244 C292.214399,749.10606 292.130777,747.839469 291.656924,746.753819 L291.656924,746.753819 L317.342579,734.380195 L367.306266,710.28712 C369.759155,714.574045 375.835632,716.425217 380.044567,713.279616 L380.044567,713.279616 L419.583473,763.957193 C419.095683,764.444343 418.621829,765.015005 418.259471,765.766609 L418.259471,765.766609 C418.064354,766.212004 418.064354,766.629561 417.952859,767.0332 L417.952859,767.0332 L412.057562,766.25376 Z M291.40606,753.14245 C291.712671,752.488277 291.726608,751.875859 291.865977,751.249522 L291.865977,751.249522 L416.754288,767.715211 L417.757743,767.854397 C417.618374,769.246256 418.050417,770.429336 418.775135,771.431474 L418.775135,771.431474 L284.730298,880.650629 C283.587475,879.495386 282.040482,878.743783 280.423805,878.548922 L280.423805,878.548922 L282.709452,809.944205 L284.451561,757.67991 L284.535182,757.67991 L284.535182,757.67991 C287.211062,757.67991 289.886941,756.413318 291.40606,753.14245 L291.40606,753.14245 Z M172.70572,849.779202 C173.109889,848.234239 172.789341,846.884136 171.981002,845.826323 L171.981002,845.826323 L187.966595,832.255701 L278.556264,755.271994 C279.894204,756.608179 281.733871,757.457212 283.615349,757.693828 L283.615349,757.693828 L282.263472,798.391778 L279.587592,878.548922 C277.288009,878.548922 275.002362,879.620654 273.720169,882.404371 L273.720169,882.404371 C273.650485,882.529638 273.664422,882.654906 273.622611,882.780173 L273.622611,882.780173 L172.70572,849.779202 Z M427.346311,772.308345 C427.806228,771.835113 428.266145,771.306207 428.60063,770.58244 L428.60063,770.58244 C428.670314,770.429336 428.64244,770.317987 428.684251,770.178801 L428.684251,770.178801 L618.824998,826.326383 C618.32327,828.21931 618.518387,829.931297 619.326725,831.350993 L619.326725,831.350993 L546.757432,875.278054 L530.743966,884.97931 C527.817223,880.887245 521.671062,879.230933 517.420316,882.627068 L517.420316,882.627068 L427.346311,772.308345 Z M286.556029,885.07674 C286.583902,883.629207 286.012491,882.390452 285.204152,881.360477 L285.204152,881.360477 L346.637884,831.2814 L419.262925,772.113485 C420.140948,772.990356 421.311646,773.519262 422.524153,773.755878 L422.524153,773.755878 L413.353692,881.276965 C409.994905,881.054268 406.566435,882.543557 404.67102,886.621703 L404.67102,886.621703 C404.169293,887.693434 404.029924,888.72341 403.904492,889.725548 L403.904492,889.725548 L286.556029,885.07674 Z M426.705215,772.865089 L473.574916,830.251424 L516.793157,883.155975 C515.956944,883.963253 515.17648,884.923635 514.577194,886.204145 L514.577194,886.204145 C513.991845,887.4429 513.782792,888.612061 513.699171,889.753385 L513.699171,889.753385 L422.217542,890.045676 C422.133921,885.452542 418.370965,882.112081 414.189904,881.43007 L414.189904,881.43007 L423.374303,773.881145 L423.597293,773.881145 L423.597293,773.881145 C424.684369,773.881145 425.771445,773.547099 426.705215,772.865089 L426.705215,772.865089 Z M638.336619,878.381899 L627.856091,835.011581 C629.640011,834.482675 631.284562,833.230002 632.31589,831.003028 L632.31589,831.003028 C632.831554,829.90346 633.068481,828.845647 633.096355,827.857427 L633.096355,827.857427 L708.313654,822.554445 L669.151043,879.25877 L650.015718,906.970678 C648.482662,906.06597 646.712679,905.690168 644.97057,905.968539 L644.97057,905.968539 L638.336619,878.381899 Z M532.137653,891.409697 C532.513949,889.252316 532.165527,887.303714 531.217819,885.675239 L531.217819,885.675239 L619.800579,832.033003 C621.44513,834.273896 624.288252,835.498732 627.033816,835.067255 L627.033816,835.067255 L640.831319,892.300487 L644.148295,906.052051 C642.364375,906.539202 640.733761,907.791874 639.688495,910.046686 L639.688495,910.046686 C639.479442,910.519918 639.493379,910.937475 639.367947,911.410707 L639.367947,911.410707 L532.137653,891.409697 Z M285.873122,888.055318 C286.207607,887.303714 286.291228,886.621703 286.402723,885.897936 L286.402723,885.897936 L403.709376,890.532826 C403.444575,899.343292 416.782162,904.08953 421.297709,894.360438 L421.297709,894.360438 C421.86912,893.135602 422.078173,891.994278 422.147858,890.880791 L422.147858,890.880791 L513.643424,890.574582 C513.768855,897.004969 520.904534,901.04136 526.49322,898.856141 L526.49322,898.856141 L562.687277,979.152472 C561.363274,979.834483 560.136829,980.864458 559.328491,982.646037 L559.328491,982.646037 C558.854637,983.689931 558.645584,984.678151 558.589836,985.624615 L558.589836,985.624615 L481.616491,987.823752 C481.198385,982.479014 473.101062,979.778808 470.257941,985.889068 L470.257941,985.889068 C468.794569,989.034669 470.076761,991.693119 472.209103,993.168489 L472.209103,993.168489 L419.541663,1078.00228 C414.705568,1075.31599 407.987996,1075.90057 404.866136,1082.62325 L404.866136,1082.62325 C404.266851,1083.94552 404.071735,1085.17035 403.946303,1086.39519 L403.946303,1086.39519 L289.315529,1083.63931 C289.301592,1078.0162 282.388904,1074.67574 277.901231,1077.82134 L277.901231,1077.82134 L253.637137,1045.79467 C254.933266,1044.66726 256.076089,1043.20581 256.940175,1041.31288 L256.940175,1041.31288 C260.828563,1032.94781 255.476804,1026.1973 248.856789,1024.31829 L248.856789,1024.31829 L278.737443,891.785499 C279.183423,891.86901 279.64334,891.924685 280.08932,891.924685 L280.08932,891.924685 C282.347093,891.924685 284.59093,890.811198 285.873122,888.055318 L285.873122,888.055318 Z M151.187189,924.8839 C151.842222,924.201889 152.469381,923.464204 152.957172,922.462065 L152.957172,922.462065 C153.793384,920.652649 153.821258,918.982419 153.514647,917.465293 L153.514647,917.465293 L273.385684,887.275877 C274.068591,889.391502 275.838574,890.922547 277.929105,891.57672 L277.929105,891.57672 L248.062388,1024.10951 C244.606043,1023.35791 240.940646,1023.87289 237.999966,1026.36432 L237.999966,1026.36432 L151.187189,924.8839 Z M527.231874,898.452502 C528.904299,897.58955 530.437355,896.281203 531.48262,894.068147 L531.48262,894.068147 C531.775294,893.413974 531.775294,892.843312 531.9286,892.230894 L531.9286,892.230894 L639.158894,912.217985 C638.824409,914.361448 639.409758,916.240457 640.636203,917.674071 L640.636203,917.674071 L571.453569,980.4469 C569.335165,978.48438 566.171495,977.704939 563.411994,978.734914 L563.411994,978.734914 L527.231874,898.452502 Z M573.697406,986.111765 C573.850711,984.135326 573.153868,982.42334 571.997107,981.087155 L571.997107,981.087155 L603.982229,952.052982 L641.165804,918.300408 C642.907913,919.914964 645.402613,920.652649 647.730071,920.235091 L647.730071,920.235091 L665.973436,988.937239 C664.370696,989.438308 662.921261,990.593551 661.973554,992.597827 L661.973554,992.597827 C661.694817,993.224164 661.653006,993.808744 661.541511,994.407244 L661.541511,994.407244 L573.697406,986.111765 Z M150.601841,925.496318 L216.077266,1002.03463 L237.442491,1027.00458 C236.369352,1028.04847 235.379834,1029.2733 234.613306,1030.9157 L234.613306,1030.9157 C234.404253,1031.31934 234.46,1031.69514 234.306695,1032.1127 L234.306695,1032.1127 L111.564662,994.031442 C112.972286,989.146017 110.881755,985.095709 107.3836,982.854816 L107.3836,982.854816 L141.821611,926.108735 C143.089867,926.776828 144.497491,927.152629 145.905115,927.152629 L145.905115,927.152629 C147.563602,927.152629 149.208153,926.65156 150.601841,925.496318 L150.601841,925.496318 Z M23.762367,959.582938 C24.2919682,959.151462 24.751885,958.566881 25.1421174,957.843115 L25.1421174,957.843115 L92.1366619,987.614973 C88.84756,995.743428 95.6905643,1001.99287 102.43601,1001.74234 L102.43601,1001.74234 L112.846854,1095.99901 C112.219695,1096.09644 111.634346,1096.31914 111.062934,1096.63927 L111.062934,1096.63927 L23.762367,959.582938 Z M487.59541,1090.08361 L476.752523,994.268058 C478.466758,994.003604 480.111309,993.043222 481.100827,990.913678 L481.100827,990.913678 C481.463186,990.120319 481.588618,989.382633 481.644365,988.644948 L481.644365,988.644948 L558.61771,986.445812 C558.743142,988.617111 559.858092,990.384772 561.488706,991.623526 L561.488706,991.623526 L490.508216,1090.89089 C489.616256,1090.3759 488.626738,1090.08361 487.59541,1090.08361 L487.59541,1090.08361 Z M426.022308,1087.96799 L424.823737,1087.8288 C425.269717,1083.76457 423.262808,1080.47979 420.224569,1078.47551 L420.224569,1078.47551 L472.919883,993.641721 C473.853654,994.14279 474.871045,994.365488 475.944184,994.351569 L475.944184,994.351569 L486.759197,1090.18104 C485.240078,1090.43158 483.80458,1091.30845 482.926557,1093.17354 L482.926557,1093.17354 C482.731441,1093.60502 482.717504,1094.00865 482.619946,1094.42621 L482.619946,1094.42621 L426.022308,1087.96799 Z M195.617938,1077.30635 L109.515941,998.026076 C110.073416,997.316228 110.700576,996.731648 111.132619,995.799102 L111.132619,995.799102 C111.299861,995.478975 111.25805,995.172766 111.369545,994.852638 L111.369545,994.852638 L234.125515,1032.91997 C232.397343,1038.72403 234.878107,1043.55378 239.031294,1046.22614 L239.031294,1046.22614 L231.352078,1058.6972 L215.673097,1084.05686 C212.161005,1082.12218 207.673332,1082.26137 204.579346,1085.56007 L204.579346,1085.56007 L195.617938,1077.30635 Z M103.272223,1001.67275 L103.272223,1001.65883 C105.37669,1001.39437 107.369663,1000.48967 109.028151,998.708087 L109.028151,998.708087 L174.04366,1058.57193 L204.091556,1086.24208 C203.589829,1086.86842 203.032354,1087.38341 202.642121,1088.2046 L202.642121,1088.2046 C201.917404,1089.80524 201.694414,1091.30845 201.750161,1092.70031 L201.750161,1092.70031 L119.843164,1100.91227 C119.355373,1097.91978 116.567999,1095.88766 113.683066,1095.92942 L113.683066,1095.92942 L103.272223,1001.67275 Z M252.912419,1046.19831 L277.19045,1078.28065 C276.493607,1078.92091 275.852511,1079.7421 275.36472,1080.79992 L275.36472,1080.79992 C274.779372,1082.05259 274.626066,1083.20783 274.640003,1084.3074 L274.640003,1084.3074 L220.397696,1090.68211 C219.993527,1088.03758 218.488345,1085.92196 216.36994,1084.51618 L216.36994,1084.51618 L235.156844,1054.10406 L239.728138,1046.69938 C241.693237,1047.79894 243.923137,1048.42528 246.139099,1048.42528 L246.139099,1048.42528 C248.494431,1048.42528 250.849762,1047.72935 252.912419,1046.19831 L252.912419,1046.19831 Z M284.85573,1090.57076 C286.333039,1089.94443 287.684915,1088.85878 288.562938,1086.93801 L288.562938,1086.93801 C288.967107,1086.07506 289.092539,1085.2817 289.176161,1084.47442 L289.176161,1084.47442 L403.751187,1087.21638 C403.723313,1089.33201 404.517715,1091.15534 405.604791,1092.74206 L405.604791,1092.74206 L344.867902,1135.41645 L315.070869,1156.35001 C313.370571,1154.34573 310.569259,1153.32967 308.018812,1154.03952 L308.018812,1154.03952 L284.85573,1090.57076 Z M218.976135,1097.07074 C219.185189,1096.72278 219.477863,1096.514 219.672979,1096.12428 L219.672979,1096.12428 C220.439507,1094.48189 220.620686,1092.93692 220.551002,1091.48939 L220.551002,1091.48939 L274.807245,1085.1286 C275.504089,1089.38768 280.13113,1092.10181 284.117076,1090.94657 L284.117076,1090.94657 L307.266221,1154.38749 C306.346387,1154.80504 305.524112,1155.48705 304.841205,1156.44744 L304.841205,1156.44744 L218.976135,1097.07074 Z M423.917841,1091.50331 C424.391694,1090.51509 424.461379,1089.59646 424.642558,1088.65 L424.642558,1088.65 L482.42483,1095.21957 C482.313335,1096.75062 482.856873,1098.05896 483.80458,1099.03326 L483.80458,1099.03326 L404.44803,1183.14329 C403.51426,1182.4056 402.441121,1181.91845 401.298297,1181.64008 L401.298297,1181.64008 L412.182994,1105.47757 L413.325818,1097.53006 C413.813608,1097.59965 414.301399,1097.62749 414.789189,1097.62749 L414.789189,1097.62749 C418.357029,1097.62749 421.910931,1095.84591 423.917841,1091.50331 L423.917841,1091.50331 Z M344.658849,1170.88101 L316.227629,1161.98704 C316.743294,1160.09411 316.436682,1158.40996 315.544723,1157.03202 L315.544723,1157.03202 L406.078644,1093.42407 C407.723195,1095.41443 409.980968,1096.77845 412.517479,1097.30736 L412.517479,1097.30736 L403.026469,1163.62943 L400.476022,1181.4313 C397.786205,1181.12509 394.929147,1182.26642 393.410027,1185.56512 L393.410027,1185.56512 C393.312469,1185.74606 393.340343,1185.89917 393.284596,1186.08011 L393.284596,1186.08011 L344.658849,1170.88101 Z M213.65225,1101.30199 C215.505854,1100.82876 217.150405,1099.60393 218.488345,1097.73884 L218.488345,1097.73884 L257.065607,1124.42077 L304.339477,1157.11553 C304.214046,1157.33823 304.032866,1157.46349 303.921371,1157.68619 L303.921371,1157.68619 C302.708863,1160.34464 303.266338,1162.64121 304.618215,1164.3532 L304.618215,1164.3532 L245.720993,1213.49973 C243.853452,1211.62072 241.107888,1210.72993 238.487756,1211.09181 L238.487756,1211.09181 L213.65225,1101.30199 Z M405.117,1183.64436 L484.47355,1099.56217 C486.062354,1100.77309 488.222569,1101.14889 490.076173,1100.27202 L490.076173,1100.27202 L535.398881,1179.02339 C534.465111,1179.66364 533.628898,1180.49876 533.015676,1181.77927 L533.015676,1181.77927 C532.611507,1182.68397 532.444264,1183.54693 532.388517,1184.36812 L532.388517,1184.36812 L407.012415,1187.95912 C406.914857,1186.26105 406.23195,1184.75784 405.117,1183.64436 L405.117,1183.64436 Z M331.028588,1183.6026 L314.583078,1165.09088 C315.070869,1164.56197 315.55866,1164.03307 315.907081,1163.25363 L315.907081,1163.25363 C315.990703,1163.10052 315.962829,1162.97525 316.032513,1162.82215 L316.032513,1162.82215 L393.075543,1186.88739 C391.667918,1192.03727 396.030159,1195.86488 400.406337,1195.67002 L400.406337,1195.67002 L404.043861,1222.81126 L410.190022,1268.81219 C409.298062,1268.9653 408.461849,1269.29934 407.695321,1269.89784 L407.695321,1269.89784 L331.028588,1183.6026 Z M247.407355,1220.96009 C248.173883,1218.28772 247.602471,1215.9494 246.194847,1214.19566 L246.194847,1214.19566 L292.479199,1175.55766 L305.092069,1165.03521 C307.377716,1167.33177 311.32185,1167.98595 314.03954,1165.71722 L314.03954,1165.71722 L407.137847,1270.5381 C406.705803,1271.01133 406.259824,1271.48456 405.953212,1272.18049 L405.953212,1272.18049 C405.897465,1272.27792 405.925339,1272.36143 405.883528,1272.45886 L405.883528,1272.45886 L247.407355,1220.96009 Z M405.646601,1192.55225 C405.883528,1192.21821 406.162265,1192.00943 406.357382,1191.59187 L406.357382,1191.59187 C406.803362,1190.61757 406.984541,1189.68502 407.054225,1188.79423 L407.054225,1188.79423 L532.41639,1185.20324 C532.59757,1187.76426 534.269994,1189.78245 536.499894,1190.72892 L536.499894,1190.72892 L510.256764,1266.09807 C507.566947,1265.26295 504.598394,1265.84753 502.535736,1268.38072 L502.535736,1268.38072 L405.646601,1192.55225 Z M544.485722,1188.321 L599.327314,1220.97401 C599.285503,1221.05752 599.229756,1221.08536 599.187945,1221.15495 L599.187945,1221.15495 C598.268111,1223.13139 598.365669,1224.94081 599.034639,1226.43009 L599.034639,1226.43009 L514.758373,1269.50812 C513.88035,1268.08843 512.612095,1266.96102 511.065102,1266.32077 L511.065102,1266.32077 L537.294296,1190.95162 C537.949329,1191.14648 538.618299,1191.24391 539.273332,1191.24391 L539.273332,1191.24391 C541.23843,1191.24391 543.161719,1190.36703 544.485722,1188.321 L544.485722,1188.321 Z M404.043861,1216.49222 L401.256486,1195.58651 C402.719858,1195.34989 404.057798,1194.57045 405.158811,1193.24818 L405.158811,1193.24818 L502.047946,1269.06273 C501.783145,1269.42461 501.462597,1269.67515 501.267481,1270.12054 L501.267481,1270.12054 C500.779691,1271.1366 500.626385,1272.08306 500.542764,1273.02953 L500.542764,1273.02953 L417.395384,1274.19869 C417.186331,1270.89998 414.120219,1268.64517 411.026234,1268.72868 L411.026234,1268.72868 L404.043861,1216.49222 Z" id="Fill-1"></path>
            </g>
        </g>
    </g>
</svg>